<svg width="20" height="20" viewBox="0 0 20 20" fill="none" xmlns="http://www.w3.org/2000/svg">
<path d="M16.7049 5.185C16.612 5.09128 16.5014 5.01688 16.3795 4.96611C16.2577 4.91534 16.127 4.88921 15.9949 4.88921C15.8629 4.88921 15.7322 4.91534 15.6104 4.96611C15.4885 5.01688 15.3779 5.09128 15.2849 5.185L7.83495 12.645L4.70494 9.505C4.60842 9.41177 4.49448 9.33845 4.36963 9.28925C4.24477 9.24004 4.11145 9.21591 3.97727 9.21824C3.84309 9.22056 3.71068 9.24928 3.5876 9.30278C3.46452 9.35627 3.35318 9.43348 3.25994 9.53C3.16671 9.62653 3.09339 9.74047 3.04419 9.86532C2.99498 9.99018 2.97085 10.1235 2.97318 10.2577C2.9755 10.3919 3.00422 10.5243 3.05772 10.6474C3.11121 10.7704 3.18842 10.8818 3.28494 10.975L7.12495 14.815C7.21791 14.9087 7.32851 14.9831 7.45037 15.0339C7.57223 15.0847 7.70293 15.1108 7.83495 15.1108C7.96696 15.1108 8.09766 15.0847 8.21952 15.0339C8.34138 14.9831 8.45198 14.9087 8.54495 14.815L16.7049 6.655C16.8064 6.56136 16.8875 6.44771 16.9429 6.32121C16.9983 6.19471 17.0269 6.05811 17.0269 5.92C17.0269 5.7819 16.9983 5.6453 16.9429 5.5188C16.8875 5.3923 16.8064 5.27865 16.7049 5.185Z" fill="#0077FF"/>
</svg>
