<svg width="12" height="8" viewBox="0 0 12 8" fill="none" xmlns="http://www.w3.org/2000/svg">
<path d="M0.305915 7.21768C-0.0940342 6.83367 -0.102982 6.20224 0.285929 5.80733L5.21523 0.802057C5.42843 0.585571 5.71694 0.485107 6 0.50178C6.28306 0.485107 6.57157 0.585571 6.78477 0.802057L11.7141 5.80733C12.103 6.20224 12.094 6.83367 11.6941 7.21768C11.2941 7.60168 10.6546 7.59285 10.2657 7.19794L6 2.86647L1.73427 7.19794C1.34536 7.59285 0.705863 7.60168 0.305915 7.21768Z" fill="#555555"/>
<path d="M0.305915 7.21768C-0.0940342 6.83367 -0.102982 6.20224 0.285929 5.80733L5.21523 0.802057C5.42843 0.585571 5.71694 0.485107 6 0.50178C6.28306 0.485107 6.57157 0.585571 6.78477 0.802057L11.7141 5.80733C12.103 6.20224 12.094 6.83367 11.6941 7.21768C11.2941 7.60168 10.6546 7.59285 10.2657 7.19794L6 2.86647L1.73427 7.19794C1.34536 7.59285 0.705863 7.60168 0.305915 7.21768Z" fill="#6D7885"/>
</svg>
