<svg width="24" height="24" viewBox="0 0 24 24" fill="none" xmlns="http://www.w3.org/2000/svg">
<path d="M17.6 5H6.4C5.76348 5 5.15303 5.27656 4.70294 5.76884C4.25286 6.26113 4 6.92881 4 7.625V16.375C4 17.0712 4.25286 17.7389 4.70294 18.2312C5.15303 18.7234 5.76348 19 6.4 19H17.6C18.2365 19 18.847 18.7234 19.2971 18.2312C19.7471 17.7389 20 17.0712 20 16.375V7.625C20 6.92881 19.7471 6.26113 19.2971 5.76884C18.847 5.27656 18.2365 5 17.6 5ZM17.272 6.75L12.568 11.895C12.4936 11.977 12.4051 12.0421 12.3077 12.0865C12.2102 12.131 12.1056 12.1538 12 12.1538C11.8944 12.1538 11.7898 12.131 11.6923 12.0865C11.5949 12.0421 11.5064 11.977 11.432 11.895L6.728 6.75H17.272ZM18.4 16.375C18.4 16.6071 18.3157 16.8296 18.1657 16.9937C18.0157 17.1578 17.8122 17.25 17.6 17.25H6.4C6.18783 17.25 5.98434 17.1578 5.83431 16.9937C5.68429 16.8296 5.6 16.6071 5.6 16.375V7.98375L10.304 13.1287C10.754 13.6203 11.364 13.8964 12 13.8964C12.636 13.8964 13.246 13.6203 13.696 13.1287L18.4 7.98375V16.375Z" fill="#0077FF"/>
</svg>
