<svg width="40" height="40" viewBox="0 0 40 40" fill="none" xmlns="http://www.w3.org/2000/svg">
<path d="M0 19.2C0 10.1491 4.33488e-07 5.62364 2.81182 2.81182C5.62364 4.33488e-07 10.1482 0 19.2 0H20.8C29.8509 0 34.3764 4.33488e-07 37.1882 2.81182C40 5.62364 40 10.1482 40 19.2V20.8C40 29.8509 40 34.3764 37.1882 37.1882C34.3764 40 29.8518 40 20.8 40H19.2C10.1491 40 5.62364 40 2.81182 37.1882C4.33488e-07 34.3764 0 29.8518 0 20.8V19.2Z" fill="#0077FF"/>
<path d="M21.2836 28.8173C12.1663 28.8173 6.96635 22.5673 6.74998 12.1673H11.3163C11.4663 19.8 14.8336 23.0336 17.5 23.7V12.1673H21.8V18.75C24.4336 18.4673 27.2 15.4673 28.1327 12.1673H32.4327C31.7163 16.2336 28.7163 19.2336 26.5836 20.4673C28.7163 21.4673 32.1336 24.0836 33.4336 28.8173H28.7C27.6836 25.65 25.15 23.2 21.8 22.8673V28.8173H21.2836Z" fill="white"/>
</svg>
